<svg xmlns="http://www.w3.org/2000/svg" viewBox="0 0 200 100"><g opacity=".4" fill="#2282F4"><path d="M115.7 35.7h15.4c-.3-.5-.7-1.1-1.2-1.8-1.5-2-3.5-4.4-5.8-6.6-2.3-2.3-4.6-4.3-6.6-5.8-.7-.5-1.3-.9-1.8-1.2v15.4z"/><path d="M113.5 40c-1.2 0-2.1-1-2.1-2.1V18.8H78.5c-2.9 0-5.3 2.4-5.3 5.3v57.3c0 2.9 2.4 5.3 5.3 5.3h48.8c2.9 0 5.3-2.4 5.3-5.3V40h-19.1zM94.4 66.5v5.3c0 1.2.9 2.1 2.1 2.1 1.2 0 2.1 1 2.1 2.1 0 1.2-1 2.1-2.1 2.1-3.5 0-6.4-2.9-6.4-6.4v-5.3c0-.6-.5-1.1-1.1-1.1h-1.1c-1.2 0-2.1-1-2.1-2.1 0-1.2.9-2.1 2.1-2.1H89c.6 0 1.1-.5 1.1-1.1v-5.3c0-3.5 2.9-6.4 6.4-6.4 1.2 0 2.1 1 2.1 2.1s-1 2.1-2.1 2.1c-1.2 0-2.1 1-2.1 2.1v5.3c0 1.2-.4 2.3-1.1 3.2.7 1.1 1.1 2.2 1.1 3.4zm23.4-1h-1.1c-.6 0-1.1.5-1.1 1.1v5.3c0 3.5-2.9 6.4-6.4 6.4-1.2 0-2.1-1-2.1-2.1 0-1.2.9-2.1 2.1-2.1 1.2 0 2.1-1 2.1-2.1v-5.3c0-1.2.4-2.3 1.1-3.2-.7-.9-1.1-2-1.1-3.2V55c0-1.2-1-2.1-2.1-2.1-1.2 0-2.1-1-2.1-2.1s.9-2.1 2.1-2.1c3.5 0 6.4 2.9 6.4 6.4v5.3c0 .6.5 1.1 1.1 1.1h1.1c1.2 0 2.1 1 2.1 2.1 0 .9-1 1.9-2.1 1.9z"/></g><path fill="#414042" d="M112.8 20.9c1.1.9 2.2 2 3.3 3.1 1.1 1.1 2.1 2.2 3.1 3.3h-6.3v-6.4m-3.1-6v15.4h15.4c-.3-.5-.7-1.1-1.2-1.8-1.5-2-3.5-4.4-5.8-6.6-2.3-2.3-4.6-4.3-6.6-5.8-.7-.5-1.2-.9-1.8-1.2z"/><path fill="#414042" d="M105.6 13.3v19.1c0 1.2.9 2.1 2.1 2.1h19.1v41.4c0 2.9-2.4 5.3-5.3 5.3H72.7c-2.9 0-5.3-2.4-5.3-5.3V18.6c0-2.9 2.4-5.3 5.3-5.3h32.9m-2.1 59.4c3.5 0 6.4-2.9 6.4-6.4V61c0-.6.5-1.1 1.1-1.1h1.1c1.2 0 2.1-1 2.1-2.1 0-1.2-1-2.1-2.1-2.1H111c-.6 0-1.1-.5-1.1-1.1v-5.3c0-3.5-2.9-6.4-6.4-6.4-1.2 0-2.1 1-2.1 2.1 0 1.2.9 2.1 2.1 2.1 1.2 0 2.1 1 2.1 2.1v5.3c0 1.2.4 2.3 1.1 3.2-.7.9-1.1 2-1.1 3.2v5.3c0 1.2-1 2.1-2.1 2.1-1.2 0-2.1 1-2.1 2.1-.1 1.4.9 2.3 2.1 2.3M82.2 60h1.1c.6 0 1.1.5 1.1 1.1v5.3c0 3.5 2.9 6.4 6.4 6.4 1.2 0 2.1-1 2.1-2.1 0-1.2-1-2.1-2.1-2.1-1.2 0-2.1-1-2.1-2.1v-5.3c0-1.2-.4-2.3-1.1-3.2.7-.9 1.1-2 1.1-3.2v-5.3c0-1.2.9-2.1 2.1-2.1 1.2 0 2.1-1 2.1-2.1 0-1.2-1-2.1-2.1-2.1-3.5 0-6.4 2.9-6.4 6.4v5.3c0 .6-.5 1.1-1.1 1.1h-1.1c-1.2 0-2.1 1-2.1 2.1 0 1 1 1.9 2.1 1.9m23.4-49.7H72.7c-4.6 0-8.3 3.7-8.3 8.3v57.3c0 4.6 3.7 8.3 8.3 8.3h48.8c4.6 0 8.3-3.7 8.3-8.3V34.5l-3-3h-18.2V13.3l-3-3z"/></svg>