<?xml version="1.0" encoding="utf-8"?>
<!-- Generator: Adobe Illustrator 19.1.0, SVG Export Plug-In . SVG Version: 6.00 Build 0)  -->
<svg version="1.1" id="Layer_1" xmlns="http://www.w3.org/2000/svg" xmlns:xlink="http://www.w3.org/1999/xlink" x="0px" y="0px"
	 viewBox="-295 257 200 100" style="enable-background:new -295 257 200 100;" xml:space="preserve">
<style type="text/css">
	.st0{clip-path:url(#SVGID_2_);}
	.st1{clip-path:url(#SVGID_4_);fill:#3F3933;}
	.st2{clip-path:url(#SVGID_4_);fill:#EFECE3;}
	.st3{opacity:0.25;clip-path:url(#SVGID_4_);}
	.st4{clip-path:url(#SVGID_6_);fill:#3F3933;}
	.st5{clip-path:url(#SVGID_4_);fill:#6D638C;}
	.st6{clip-path:url(#SVGID_4_);fill:#FFFFFF;}
	.st7{clip-path:url(#SVGID_4_);fill:#695D4E;}
	.st8{clip-path:url(#SVGID_4_);fill:#87735E;}
	.st9{clip-path:url(#SVGID_4_);}
	.st10{fill:#3F3933;}
</style>
<g id="robot">
	<defs>
		<rect id="SVGID_1_" x="-556.8" y="-160.8" width="725.1" height="938.4"/>
	</defs>
	<clipPath id="SVGID_2_">
		<use xlink:href="#SVGID_1_"  style="overflow:visible;"/>
	</clipPath>
	<g class="st0">
		<defs>
			<rect id="SVGID_3_" x="-233.4" y="257.6" width="78.4" height="101.4"/>
		</defs>
		<clipPath id="SVGID_4_">
			<use xlink:href="#SVGID_3_"  style="overflow:visible;"/>
		</clipPath>
		<path class="st1" d="M-209.5,326.6c0,0,5.2,9.3,14,8.6c14.1-1.2,19.1-23.9,19.1-23.9s2.9-11.8-3.9-17.8
			c-6.8-5.9-22.8-2.6-22.8-2.6s-10.5,2.9-13.2,10.7C-218.9,309.5-217.1,315.2-209.5,326.6"/>
		<path class="st2" d="M-208.7,325.8c0,0,4.9,8.7,13.2,8c13.2-1.1,17.9-22.5,17.9-22.5s2.7-11.1-3.7-16.7
			c-6.4-5.6-21.4-2.5-21.4-2.5s-9.9,2.7-12.4,10.1C-217.6,309.7-215.9,315-208.7,325.8"/>
		<g class="st3">
			<g>
				<defs>
					<rect id="SVGID_5_" x="-208.6" y="342" width="25.1" height="7.6"/>
				</defs>
				<clipPath id="SVGID_6_">
					<use xlink:href="#SVGID_5_"  style="overflow:visible;"/>
				</clipPath>
				<path class="st4" d="M-183.5,345.8c0,2.1-5.6,3.8-12.6,3.8c-6.9,0-12.6-1.7-12.6-3.8c0-2.1,5.6-3.8,12.6-3.8
					C-189.1,342-183.5,343.7-183.5,345.8"/>
			</g>
		</g>
		<path class="st1" d="M-193.9,300.7l1.1-0.9l1.7-6.3h-10.7l1.9,6.3l0.8,0.7l-3.4,25.1l5.9,4.6l5.8-4.6L-193.9,300.7z M-199.3,299.5
			l-1.6-5.2h8.9l-1.4,5.2H-199.3z M-201,324.5l2.7-23.8h3.7l2.5,23.8l-4.4,4.2L-201,324.5z"/>
		<polygon class="st5" points="-193.4,299.5 -192,294.2 -200.9,294.2 -199.3,299.5 		"/>
		<polygon class="st5" points="-198.2,300.7 -201,324.5 -196.4,328.6 -192,324.5 -194.5,300.7 		"/>
		<path class="st1" d="M-211.1,304.4c0,0,4.5,1.2,8.6-0.5l0,2c0,0-4,1.4-8.6,0.4V304.4z"/>
		<path class="st6" d="M-185.8,294.8c0,0,6.6,4.4,4.7,10.9l-2.9,16.2l4.5-14.4c0,0,1.5-3.6-0.3-7.8
			C-181.7,295.7-185.8,294.8-185.8,294.8"/>
		<polygon class="st1" points="-187.5,337 -189,334.6 -189.5,315.4 -188,317 		"/>
		<polygon class="st7" points="-187,336.5 -188.4,334.5 -188.9,316 -187.6,317.4 		"/>
		<polygon class="st1" points="-166,307.5 -187.6,317.4 -187,337.8 -165.4,327.3 		"/>
		<polygon class="st8" points="-167,309 -186.4,317.9 -185.9,336.3 -166.6,326.8 		"/>
		<polygon class="st1" points="-166,307.5 -168.4,306 -189.5,315.4 -187.3,317.8 		"/>
		<polygon class="st8" points="-166.9,308 -168.5,307 -188.9,316 -187.6,317.5 		"/>
		<path class="st1" d="M-181.3,314C-181.3,314-181.3,314-181.3,314c-0.3,0-0.4-0.2-0.4-0.5l0.1-3c0-0.2,0.1-0.3,0.3-0.4l6.7-3
			c0.1-0.1,0.3,0,0.4,0c0.1,0.1,0.2,0.2,0.2,0.4v2.8c0,0.2-0.2,0.4-0.4,0.4c-0.2,0-0.4-0.2-0.4-0.4v-2.1l-5.9,2.6l-0.1,2.7
			C-180.9,313.8-181.1,314-181.3,314"/>
		<polygon class="st1" points="-187,337.8 -187.5,337 -187.6,335.6 -186.9,336.5 		"/>
		<path class="st1" d="M-182.6,294h-28.6c-1.9,0-3.5-1.6-3.5-3.5l-1.7-16.9c0-1.9,1.6-3.9,3.5-3.9h32.6c1.9,0,3.5,2,3.5,3.9
			l-2.3,16.9C-179.1,292.4-180.6,294-182.6,294"/>
		<path class="st2" d="M-183.4,292.6l-26.6,0c-1.9,0-3.5-1.6-3.5-3.5l-1.6-14.6c0-1.9,1.6-3.5,3.5-3.5h30.2c1.9,0,3.5,1.6,3.5,3.5
			l-2,14.6C-180,291-181.5,292.6-183.4,292.6"/>
		<path class="st1" d="M-184.9,281.4c0,1.9-1.6,3.5-3.5,3.5c-1.9,0-3.5-1.6-3.5-3.5c0-1.9,1.6-3.5,3.5-3.5
			C-186.5,277.9-184.9,279.4-184.9,281.4"/>
		<path class="st1" d="M-201.2,281.4c0,1.9-1.6,3.5-3.5,3.5c-1.9,0-3.5-1.6-3.5-3.5c0-1.9,1.6-3.5,3.5-3.5
			C-202.8,277.9-201.2,279.4-201.2,281.4"/>
		<path class="st6" d="M-202.8,280.2c0,0.4-0.3,0.6-0.6,0.6s-0.6-0.3-0.6-0.6c0-0.4,0.3-0.6,0.6-0.6S-202.8,279.9-202.8,280.2"/>
		<path class="st6" d="M-186.5,280.1c0,0.4-0.3,0.6-0.6,0.6s-0.6-0.3-0.6-0.6c0-0.4,0.3-0.6,0.6-0.6S-186.5,279.7-186.5,280.1"/>
		<polyline class="st1" points="-199.7,288.2 -196.5,288.7 -193.4,288.2 		"/>
		<g class="st9">
			<polygon class="st10" points="-196.5,288.8 -199.7,288.3 -199.6,288.1 -196.5,288.6 -193.4,288.1 -193.4,288.3 			"/>
		</g>
		<path class="st6" d="M-185.5,272.4c0,0,5.4,0,5.9,6.2C-179.6,278.6-176.9,270.5-185.5,272.4"/>
		<path class="st1" d="M-175.9,279h-5v-0.6c0-1.3-1-2.3-2.3-2.3h-9.3c-1.3,0-2.3,1-2.3,2.3v1.1h-3.5v-1.1c0-1.3-1-2.3-2.3-2.3h-9.8
			c-1.3,0-2.3,1-2.3,2.3v0.6h-4.7v1.6h4.7v3.8c0,1.3,1,2.3,2.3,2.3h9.8c1.3,0,2.3-1,2.3-2.3V281h3.5v3.3c0,1.3,1,2.3,2.3,2.3h9.3
			c1.3,0,2.3-1,2.3-2.3v-3.8h5V279z M-199.9,284.3c0,0.4-0.3,0.7-0.7,0.7h-9.8c-0.4,0-0.7-0.3-0.7-0.7v-5.9c0-0.4,0.3-0.7,0.7-0.7
			h9.8c0.4,0,0.7,0.3,0.7,0.7V284.3z M-182.5,284.3c0,0.4-0.3,0.7-0.7,0.7h-9.3c-0.4,0-0.7-0.3-0.7-0.7v-5.9c0-0.4,0.3-0.7,0.7-0.7
			h9.3c0.4,0,0.7,0.3,0.7,0.7V284.3z"/>
	</g>
</g>
</svg>
