<?xml version="1.0" encoding="utf-8"?>
<!-- Generator: Adobe Illustrator 19.1.0, SVG Export Plug-In . SVG Version: 6.00 Build 0)  -->
<svg version="1.1" id="Layer_1" xmlns="http://www.w3.org/2000/svg" xmlns:xlink="http://www.w3.org/1999/xlink" x="0px" y="0px"
	 viewBox="-295 257 200 100" style="enable-background:new -295 257 200 100;" xml:space="preserve">
<style type="text/css">
	.st0{opacity:0.4;}
	.st1{fill:#FDD600;}
	.st2{fill:none;stroke:#414042;stroke-width:3;stroke-miterlimit:10;}
</style>
<g>
	<g transform="translate(480 576)" class="st0">
		<path class="st1" d="M-640.2-288.5h-18.5v-4.6c0-2.5-2.1-4.6-4.6-4.6h-18.5c-2.5,0-4.6,2.1-4.6,4.6v4.6h-18.5
			c-2.5,0-4.6,2.1-4.6,4.6v41.5c0,2.5,2.1,4.6,4.6,4.6h64.6c2.5,0,4.6-2.1,4.6-4.6v-41.5C-635.6-286.4-637.6-288.5-640.2-288.5z
			 M-681.7-293.1C-681.7-293.1-681.7-293.1-681.7-293.1l18.4,0c0,0,0,0,0,0v4.6h-18.5V-293.1z M-640.2-270h-9.2v6.9
			c0,1.3-1,2.3-2.3,2.3h-4.6c-1.3,0-2.3-1-2.3-2.3v-6.9h-27.7v6.9c0,1.3-1,2.3-2.3,2.3h-4.6c-1.3,0-2.3-1-2.3-2.3v-6.9h-9.2v-4.6
			h64.6V-270z"/>
	</g>
	<g transform="translate(480 576)">
		<path class="st2" d="M-644.8-293.1h-18.5v-4.6c0-2.5-2.1-4.6-4.6-4.6h-18.5c-2.5,0-4.6,2.1-4.6,4.6v4.6h-18.5
			c-2.5,0-4.6,2.1-4.6,4.6v41.5c0,2.5,2.1,4.6,4.6,4.6h64.6c2.5,0,4.6-2.1,4.6-4.6v-41.5C-640.2-291-642.3-293.1-644.8-293.1z
			 M-686.3-297.7C-686.3-297.7-686.3-297.7-686.3-297.7l18.4,0c0,0,0,0,0,0v4.6h-18.5V-297.7z M-644.8-274.6h-9.2v6.9
			c0,1.3-1,2.3-2.3,2.3h-4.6c-1.3,0-2.3-1-2.3-2.3v-6.9h-27.7v6.9c0,1.3-1,2.3-2.3,2.3h-4.6c-1.3,0-2.3-1-2.3-2.3v-6.9h-9.2v-4.6
			h64.6V-274.6z"/>
	</g>
</g>
</svg>
