<svg xmlns="http://www.w3.org/2000/svg" viewBox="0 0 200 100"><g opacity=".4" fill="#FDD600"><path d="M102.8 21C85 21 70.6 25.5 70.6 31.1v8c0 5.6 14.4 10.1 32.2 10.1 17.8 0 32.2-4.5 32.2-10.1v-8c-.1-5.6-14.5-10.1-32.2-10.1z"/><path d="M102.8 55.2c-17.8 0-32.2-4.5-32.2-10.1v12.1c0 5.6 14.4 10.1 32.2 10.1 17.8 0 32.2-4.5 32.2-10.1V45.1c-.1 5.6-14.5 10.1-32.2 10.1z"/><path d="M102.8 73.2c-17.8 0-32.2-4.5-32.2-10.1v12.1c0 5.6 14.4 10.1 32.2 10.1 17.8 0 32.2-4.5 32.2-10.1V63.1c-.1 5.6-14.5 10.1-32.2 10.1z"/></g><g fill="none" stroke="#414042" stroke-width="3" stroke-linecap="round" stroke-linejoin="round" stroke-miterlimit="10"><path d="M97.2 14.7C79.4 14.7 65 19.2 65 24.8v8c0 5.6 14.4 10.1 32.2 10.1 17.8 0 32.2-4.5 32.2-10.1v-8c0-5.6-14.4-10.1-32.2-10.1z"/><path d="M97.2 48.9C79.4 48.9 65 44.4 65 38.8v12.1C65 56.5 79.4 61 97.2 61c17.8 0 32.2-4.5 32.2-10.1V38.8c0 5.6-14.4 10.1-32.2 10.1z"/><path d="M97.2 67C79.4 67 65 62.5 65 56.9V69c0 5.6 14.4 10.1 32.2 10.1 17.8 0 32.2-4.5 32.2-10.1V56.9c0 5.6-14.4 10.1-32.2 10.1z"/></g></svg>