<svg xmlns="http://www.w3.org/2000/svg" viewBox="0 0 200 100"><path fill="#C522F4" d="M97.6 16.8c19.2 0 34.8 12.6 34.8 28.2s-15.6 28.2-34.8 28.2c-1.8 0-3.7-.1-5.4-.3-7.5 7.4-16.1 8.8-24.7 9v-1.8c4.7-2.3 8.4-6.4 8.4-11.2 0-.7 0-1.3-.1-1.9-7.9-5.2-12.9-13.1-12.9-21.9-.1-15.7 15.5-28.3 34.7-28.3zM135.1 80c0 4.1 2.6 7.6 6.7 9.6v1.6c-7.5-.2-14.3-1.3-20.8-7.7-1.5.2-3.1.3-4.7.3-6.9 0-13.3-1.9-18.4-5 10.5 0 20.4-3.4 27.9-9.5 3.8-3.1 6.8-6.7 8.9-10.7 2.2-4.3 3.4-8.8 3.4-13.5 0-.8 0-1.5-.1-2.3 5.3 4.3 8.5 10.3 8.5 16.8 0 7.6-4.4 14.3-11.2 18.8-.2.5-.2 1-.2 1.6z" opacity=".35"/><path fill="none" stroke="#414042" stroke-width="3" stroke-miterlimit="10" d="M88.4 13.8c19.2 0 34.8 12.6 34.8 28.2s-15.6 28.2-34.8 28.2c-1.8 0-3.7-.1-5.4-.3-7.5 7.4-16.1 8.8-24.7 9v-1.8c4.7-2.3 8.4-6.4 8.4-11.2 0-.7 0-1.3-.1-1.9-7.9-5.2-12.9-13.1-12.9-21.9-.1-15.7 15.5-28.3 34.7-28.3zM125.9 77c0 4.1 2.6 7.6 6.7 9.6v1.6c-7.5-.2-14.3-1.3-20.8-7.7-1.5.2-3.1.3-4.7.3-6.9 0-13.3-1.9-18.4-5 10.5 0 20.4-3.4 27.9-9.5 3.8-3.1 6.8-6.7 8.9-10.7 2.2-4.3 3.4-8.8 3.4-13.5 0-.8 0-1.5-.1-2.3 5.3 4.3 8.5 10.3 8.5 16.8 0 7.6-4.4 14.3-11.2 18.8-.2.5-.2 1-.2 1.6z"/></svg>