<svg xmlns="http://www.w3.org/2000/svg" viewBox="0 0 200 100"><g opacity=".4" fill="#6CF422"><path d="M122.7 63.7H64.6c-1.5 0-2.6 1.2-2.6 2.6v15.9c0 1.5 1.2 2.6 2.6 2.6h58.1c1.5 0 2.6-1.2 2.6-2.6V66.4c0-1.5-1.2-2.7-2.6-2.7zm-7.9 15.9c-2.9 0-5.3-2.4-5.3-5.3s2.4-5.3 5.3-5.3 5.3 2.4 5.3 5.3c-.1 2.9-2.4 5.3-5.3 5.3zM125.3 61.5V24.1c0-1.5-1.2-2.6-2.6-2.6h-15.9c-1.5 0-2.6 1.2-2.6 2.6v16.3l21.1 21.1zM144.9 30.1l-14.3-6.9v42.5l15.5-32.1c.6-1.3.1-2.8-1.2-3.5zM113.9 58.4L86.8 31.3c-1-1-2.7-1-3.7 0L71.9 42.5c-1 1-1 2.7 0 3.7l12.2 12.2h29.8z"/></g><g fill="none" stroke="#414042" stroke-width="3" stroke-miterlimit="10"><path d="M114.4 57.4H56.3c-1.5 0-2.6 1.2-2.6 2.6v15.9c0 1.5 1.2 2.6 2.6 2.6h58.1c1.5 0 2.6-1.2 2.6-2.6V60.1c0-1.5-1.1-2.7-2.6-2.7zm-7.9 15.9c-2.9 0-5.3-2.4-5.3-5.3s2.4-5.3 5.3-5.3 5.3 2.4 5.3 5.3-2.4 5.3-5.3 5.3zM117 55.2V17.8c0-1.5-1.2-2.6-2.6-2.6H98.5c-1.5 0-2.6 1.2-2.6 2.6v16.3L117 55.2zM136.6 23.8L122.3 17v42.5l15.5-32.1c.7-1.3.1-2.9-1.2-3.6zM105.6 52.1L78.4 25c-1-1-2.7-1-3.7 0L63.5 36.2c-1 1-1 2.7 0 3.7l12.2 12.2h29.9z"/></g></svg>