<?xml version="1.0" encoding="utf-8"?>
<!-- Generator: Adobe Illustrator 19.1.0, SVG Export Plug-In . SVG Version: 6.00 Build 0)  -->
<svg version="1.1" id="Layer_1" xmlns="http://www.w3.org/2000/svg" xmlns:xlink="http://www.w3.org/1999/xlink" x="0px" y="0px"
	 viewBox="-295 257 200 100" style="enable-background:new -295 257 200 100;" xml:space="preserve">
<style type="text/css">
	.st0{opacity:0.4;fill:#C522F4;}
	.st1{fill:#414042;}
</style>
<polygon class="st0" points="-166.7,304.7 -166.7,285.7 -226.3,285.7 -226.3,320.8 -180.7,320.8 -180.7,335.8 -156.8,335.8 
	-156.8,304.7 "/>
<g>
	<polygon class="st1" points="-193.7,319.9 -212.6,319.9 -214.5,327.5 -218.3,331.3 -188.1,331.3 -191.9,327.5 	"/>
	<path class="st1" d="M-161.9,299.4h-11v-21h-60.5v37.8h47.4v13.6c0,1.7,1.4,3.1,3.1,3.1h20.9c1.7,0,3.1-1.4,3.1-3.1v-27.2
		C-158.8,300.8-160.2,299.4-161.9,299.4z M-229.7,312.4v-30.2h52.9v17.3h-6.1c-1.7,0-3.1,1.4-3.1,3.1v9.8H-229.7z M-176.7,303.6
		h-5.1v8.8v-8.8H-176.7z M-172.4,331.9c-0.6,0-1-0.5-1-1c0-0.6,0.5-1,1-1c0.6,0,1,0.5,1,1C-171.3,331.4-171.8,331.9-172.4,331.9z
		 M-163,328.7h-18.9v-12.6v-12.6h8.9h10V328.7z"/>
</g>
</svg>
